<svg xmlns="http://www.w3.org/2000/svg" width="1600" height="650" viewBox="0 0 1600 650"><defs><linearGradient id="g" x1="0" x2="1"><stop stop-color="#050505"/><stop offset=".55" stop-color="#17130b"/><stop offset="1" stop-color="#050505"/></linearGradient><radialGradient id="r" cx="70%" cy="45%"><stop stop-color="#d8a83e" stop-opacity=".45"/><stop offset="1" stop-color="#000" stop-opacity="0"/></radialGradient><filter id="blur"><feGaussianBlur stdDeviation="18"/></filter></defs><rect width="1600" height="650" fill="url(#g)"/><rect width="1600" height="650" fill="url(#r)"/><g opacity=".9"><g transform="translate(920 80)"><circle cx="100" cy="70" r="45" fill="#ddd"/><path d="M65 135l35-25 35 25 55 85-45 32-25-40 10 200H70l10-200-25 40-45-32z" fill="#bdbdbd"/></g><g transform="translate(1160 50) scale(1.15)"><circle cx="100" cy="70" r="45" fill="#ddd"/><path d="M65 135l35-25 35 25 55 85-45 32-25-40 10 200H70l10-200-25 40-45-32z" fill="#d8a83e"/></g><g transform="translate(1390 95) scale(.9)"><circle cx="100" cy="70" r="45" fill="#ddd"/><path d="M65 135l35-25 35 25 55 85-45 32-25-40 10 200H70l10-200-25 40-45-32z" fill="#777"/></g></g><text x="90" y="540" fill="#fff" font-family="Arial" font-size="28" font-weight="700" letter-spacing="7">ESTILO DENTRO E FORA DO CAMPO</text></svg>